<svg width="24" height="24" version="1.1" viewBox="0 0 6.35 6.35" xmlns="http://www.w3.org/2000/svg" xmlns:xlink="http://www.w3.org/1999/xlink">
 <defs>
  <linearGradient id="linearGradient1519">
   <stop style="stop-color:#a053ce" offset="0"/>
   <stop style="stop-color:#d1498e" offset=".5"/>
   <stop style="stop-color:#eb4852" offset="1"/>
  </linearGradient>
  <linearGradient id="linearGradient1561" x1="12" x2="12" y1="2" y2="22" gradientUnits="userSpaceOnUse" xlink:href="#linearGradient1519"/>
 </defs>
 <path transform="scale(.26458)" d="m2 12v2c0 2 2 4 4 4h9v4l3-4c2 0 4-2 4-4v-2s-2 2-10 2c-8 0-10-2-10-2z" style="fill:url(#linearGradient1561)"/>
 <path transform="scale(.26458)" d="m10 2-4 4c-2 1e-7 -4 2-4 4-0.15713 0.0066 2 2 10 2 8 0 10-2 10-2 0-2-2-4-4-4h-8z" style="fill:url(#linearGradient1561)"/>
</svg>
